<?xml version="1.0" standalone="no"?>
<!DOCTYPE svg PUBLIC "-//W3C//DTD SVG 20010904//EN"
 "http://www.w3.org/TR/2001/REC-SVG-20010904/DTD/svg10.dtd">
<svg version="1.0" xmlns="http://www.w3.org/2000/svg"
 width="128.000000pt" height="128.000000pt" viewBox="0 0 128.000000 128.000000"
 preserveAspectRatio="xMidYMid meet">
<metadata>
Created by potrace 1.14, written by Peter Selinger 2001-2017
</metadata>
<g transform="translate(0.000000,128.000000) scale(0.100000,-0.100000)"
fill="#000000" stroke="none">
<path d="M600 1200 c0 -33 -3 -40 -20 -40 -17 0 -20 -7 -20 -40 0 -33 -3 -40
-20 -40 -17 0 -20 -7 -20 -40 0 -33 -3 -40 -20 -40 -17 0 -20 -7 -20 -40 0
-33 -3 -40 -20 -40 -17 0 -20 -7 -20 -40 l0 -40 -40 0 c-33 0 -40 -3 -40 -20
0 -17 -7 -20 -40 -20 -33 0 -40 -3 -40 -20 0 -17 -7 -20 -40 -20 -33 0 -40 -3
-40 -20 0 -17 -7 -20 -40 -20 -33 0 -40 -3 -40 -20 0 -17 -7 -20 -40 -20 l-40
0 0 -40 0 -40 40 0 c33 0 40 -3 40 -20 0 -17 7 -20 40 -20 33 0 40 -3 40 -20
0 -13 7 -20 20 -20 17 0 20 -7 20 -40 0 -33 -3 -40 -20 -40 -17 0 -20 -7 -20
-40 0 -33 -3 -40 -20 -40 -17 0 -20 -7 -20 -40 0 -33 -3 -40 -20 -40 -17 0
-20 -7 -20 -40 0 -33 -3 -40 -20 -40 -17 0 -20 -7 -20 -40 0 -33 -3 -40 -20
-40 -17 0 -20 -7 -20 -40 l0 -40 520 0 c513 0 520 0 520 20 0 18 7 20 60 20
l60 0 0 60 c0 53 2 60 20 60 20 0 20 7 20 520 l0 520 -40 0 c-33 0 -40 -3 -40
-20 0 -17 -7 -20 -40 -20 -33 0 -40 -3 -40 -20 0 -17 -7 -20 -40 -20 -33 0
-40 -3 -40 -20 0 -17 -7 -20 -40 -20 -33 0 -40 -3 -40 -20 0 -17 -7 -20 -40
-20 -33 0 -40 -3 -40 -20 0 -17 -7 -20 -40 -20 -33 0 -40 3 -40 20 0 13 -7 20
-20 20 -17 0 -20 7 -20 40 0 33 -3 40 -20 40 -13 0 -20 7 -20 20 0 13 -7 20
-20 20 -13 0 -20 7 -20 20 0 13 -7 20 -20 20 -17 0 -20 -7 -20 -40z"/>
</g>
</svg>
