<?xml version="1.0" standalone="no"?>
<!DOCTYPE svg PUBLIC "-//W3C//DTD SVG 20010904//EN"
 "http://www.w3.org/TR/2001/REC-SVG-20010904/DTD/svg10.dtd">
<svg version="1.0" xmlns="http://www.w3.org/2000/svg"
 width="128.000000pt" height="128.000000pt" viewBox="0 0 128.000000 128.000000"
 preserveAspectRatio="xMidYMid meet">
<metadata>
Created by potrace 1.14, written by Peter Selinger 2001-2017
</metadata>
<g transform="translate(0.000000,128.000000) scale(0.100000,-0.100000)"
fill="#000000" stroke="none">
<path d="M1023 1152 c-117 -59 -213 -111 -212 -117 0 -5 101 -210 224 -455
l224 -445 0 553 c1 303 1 555 2 560 1 20 -43 2 -238 -96z"/>
<path d="M550 1018 l-85 -170 325 -318 c179 -175 326 -315 328 -310 3 8 -153
323 -370 747 l-114 222 -84 -171z"/>
<path d="M243 727 l-163 -82 485 -243 c267 -133 491 -242 497 -242 7 0 -133
146 -312 325 -179 179 -329 325 -335 324 -5 0 -83 -37 -172 -82z"/>
<path d="M125 250 c-60 -120 -106 -222 -103 -226 5 -5 1019 -9 1103 -4 18 1
-857 448 -880 449 -6 1 -60 -98 -120 -219z"/>
</g>
</svg>
